<?xml version="1.0" encoding="UTF-8"?>
<svg version="1.1" xmlns="http://www.w3.org/2000/svg" style="display: block;" viewBox="0 0 512 512">
<!--<path transform="translate(0,0)" fill="rgb(237,246,249)" d="M 0 0 L 0 512 L 512 512 L 512 0 L 0 0 z"/>-->
<path transform="translate(0,0)" fill="rgb(0,109,119)" d="M 408.15 398.62 L 112.065 398.675 C 108.472 398.677 104.676 398.905 101.111 398.518 C 89.6075 397.272 77.9907 385.636 77.3378 374.032 C 77.0863 369.561 77.4013 364.885 77.4064 360.393 L 77.4263 147.193 C 77.4316 137.442 77.1759 128.545 84.251 120.639 C 89.8367 114.398 96.9062 111.927 105.093 111.471 L 400.808 111.5 C 404.257 111.501 407.922 111.238 411.335 111.644 C 423.111 113.048 433.916 124.437 434.711 136.239 C 435.053 141.326 434.77 146.614 434.769 151.719 L 434.783 363.858 C 434.795 367.369 435.095 371.15 434.724 374.635 C 433.28 388.173 421.354 397.824 408.15 398.62 z M 118.957 162.531 L 119.017 347.321 L 391.513 347.287 C 392.278 347.287 392.981 347.543 393.634 347.079 L 393.884 162.551 L 118.957 162.531 z"/>
<path transform="translate(0,0)" fill="rgb(0,109,119)" d="M 274.366 286.574 L 225.519 315.889 C 222.42 317.727 218.925 320.082 215.356 320.775 C 211.135 321.594 205.676 318.47 205.021 314.021 C 204.813 312.608 204.956 311.049 204.965 309.617 L 205.01 205.346 C 205.015 198.084 203.668 189.973 213.417 188.808 C 218.044 188.821 221.075 191.784 224.739 194.224 L 312.101 247.583 C 316.199 250.199 317.867 254.534 316.533 259.321 C 315.479 263.106 311.607 264.626 308.482 266.349 L 274.366 286.574 z"/>
</svg>
