<?xml version="1.0" encoding="UTF-8"?>
<svg version="1.1" xmlns="http://www.w3.org/2000/svg" style="display: block;" viewBox="0 0 512 512">
<!--<path transform="translate(0,0)" fill="rgb(237,246,249)" d="M 0 0 L 0 512 L 512 512 L 512 0 L 0 0 z"/>-->
<path transform="translate(0,0)" fill="rgb(0,109,119)" d="M 347.214 280 L 169.712 280.033 C 167.558 280.034 165.282 280.171 163.144 279.939 C 156.248 279.192 149.284 272.216 148.893 265.26 C 148.742 262.58 148.931 259.776 148.934 257.083 L 148.946 129.27 C 148.949 123.425 148.796 118.091 153.037 113.352 C 156.386 109.61 160.624 108.129 165.532 107.856 L 342.812 107.873 C 344.88 107.874 347.076 107.716 349.123 107.959 C 356.182 108.801 362.66 115.628 363.137 122.703 C 363.342 125.753 363.172 128.924 363.171 131.984 L 363.18 259.16 C 363.187 261.266 363.367 263.532 363.144 265.621 C 362.279 273.737 355.129 279.523 347.214 280 z M 173.843 138.466 L 173.879 249.247 L 337.239 249.226 C 337.698 249.226 338.119 249.379 338.511 249.101 L 338.661 138.478 L 173.843 138.466 z"/>
<path transform="translate(0,0)" fill="rgb(0,109,119)" d="M 267.01 212.829 L 237.727 230.403 C 235.869 231.505 233.774 232.917 231.634 233.332 C 229.104 233.823 225.831 231.951 225.438 229.283 C 225.314 228.436 225.399 227.502 225.404 226.643 L 225.431 164.133 C 225.435 159.779 224.627 154.917 230.472 154.219 C 233.245 154.226 235.063 156.003 237.259 157.465 L 289.632 189.454 C 292.089 191.022 293.089 193.621 292.289 196.491 C 291.657 198.76 289.336 199.671 287.463 200.704 L 267.01 212.829 z"/>
<path transform="translate(0,0)" fill="rgb(131,197,190)" d="M 65 428.061 L 65 376.376 L 73.8525 376.376 L 73.8525 381.294 C 75.5813 379.327 77.4889 377.867 79.5754 376.913 C 81.6618 375.959 83.8079 375.482 86.0136 375.482 C 87.9212 375.482 89.6351 375.959 91.1552 376.913 C 92.6753 377.867 93.7633 379.565 94.419 382.01 C 96.267 379.744 98.279 378.09 100.455 377.047 C 102.631 376.004 104.911 375.482 107.295 375.482 C 108.965 375.482 110.485 375.884 111.856 376.689 C 113.227 377.494 114.33 378.776 115.164 380.534 C 115.999 382.293 116.416 384.603 116.416 387.464 L 116.416 428.061 L 107.653 428.061 L 107.653 388.09 C 107.653 385.586 107.251 383.902 106.446 383.038 C 105.641 382.174 104.553 381.741 103.182 381.741 C 101.871 381.741 100.5 382.114 99.0688 382.859 C 97.6381 383.604 96.3266 384.633 95.1344 385.944 C 95.1344 386.183 95.1344 386.421 95.1344 386.659 C 95.1344 386.898 95.1344 387.166 95.1344 387.464 L 95.1344 428.061 L 86.3713 428.061 L 86.3713 388.09 C 86.3713 385.586 85.9689 383.902 85.1641 383.038 C 84.3593 382.174 83.2713 381.741 81.9003 381.741 C 80.5888 381.741 79.2326 382.114 77.8317 382.859 C 76.4308 383.604 75.1044 384.633 73.8525 385.944 L 73.8525 428.061 L 65 428.061 z M 140.023 428.776 C 136.208 428.776 133.197 428.001 130.992 426.451 C 128.786 424.901 127.221 422.695 126.297 419.834 C 125.373 416.973 124.911 413.604 124.911 409.73 L 124.911 394.707 C 124.911 390.832 125.373 387.464 126.297 384.603 C 127.221 381.741 128.786 379.536 130.992 377.986 C 133.197 376.436 136.208 375.661 140.023 375.661 C 143.838 375.661 146.834 376.436 149.01 377.986 C 151.185 379.536 152.735 381.741 153.659 384.603 C 154.583 387.464 155.045 390.832 155.045 394.707 L 155.045 409.73 C 155.045 413.604 154.583 416.973 153.659 419.834 C 152.735 422.695 151.185 424.901 149.01 426.451 C 146.834 428.001 143.838 428.776 140.023 428.776 z M 140.023 421.712 C 141.871 421.712 143.168 421.175 143.913 420.102 C 144.658 419.029 145.105 417.613 145.254 415.855 C 145.403 414.096 145.478 412.263 145.478 410.356 L 145.478 394.171 C 145.478 392.203 145.403 390.355 145.254 388.627 C 145.105 386.898 144.658 385.482 143.913 384.379 C 143.168 383.276 141.871 382.725 140.023 382.725 C 138.175 382.725 136.863 383.276 136.088 384.379 C 135.313 385.482 134.852 386.898 134.702 388.627 C 134.553 390.355 134.479 392.203 134.479 394.171 L 134.479 410.356 C 134.479 412.263 134.553 414.096 134.702 415.855 C 134.852 417.613 135.313 419.029 136.088 420.102 C 136.863 421.175 138.175 421.712 140.023 421.712 z M 170.515 428.061 L 160.321 376.376 L 169.978 376.376 L 176.327 417.956 L 182.765 376.376 L 192.065 376.376 L 182.229 428.061 L 170.515 428.061 z M 198.861 428.061 L 198.861 376.376 L 208.429 376.376 L 208.429 428.061 L 198.861 428.061 z M 198.861 368.686 L 198.861 358.671 L 208.429 358.671 L 208.429 368.686 L 198.861 368.686 z M 233.019 428.776 C 228.966 428.776 225.836 427.986 223.63 426.406 C 221.424 424.827 219.89 422.502 219.025 419.432 C 218.16 416.362 217.728 412.591 217.728 408.12 L 217.728 396.317 C 217.728 391.727 218.176 387.911 219.07 384.871 C 219.964 381.831 221.529 379.536 223.764 377.986 C 226 376.436 229.085 375.661 233.019 375.661 C 237.371 375.661 240.575 376.555 242.632 378.343 C 244.688 380.132 246.045 382.71 246.7 386.078 C 247.356 389.446 247.684 393.485 247.684 398.195 L 247.684 402.397 L 227.296 402.397 L 227.296 412.77 C 227.296 414.856 227.49 416.555 227.878 417.867 C 228.265 419.178 228.891 420.147 229.755 420.773 C 230.62 421.399 231.738 421.712 233.109 421.712 C 234.539 421.712 235.628 421.369 236.372 420.684 C 237.117 419.998 237.624 419.014 237.893 417.733 C 238.161 416.451 238.295 414.946 238.295 413.217 L 238.295 410.087 L 247.595 410.087 L 247.595 412.055 C 247.595 417.241 246.492 421.324 244.286 424.305 C 242.08 427.286 238.324 428.776 233.019 428.776 z M 227.296 397.211 L 238.295 397.211 L 238.295 392.561 C 238.295 390.415 238.176 388.612 237.937 387.151 C 237.699 385.691 237.207 384.588 236.462 383.843 C 235.717 383.098 234.539 382.725 232.93 382.725 C 231.38 382.725 230.202 383.083 229.398 383.798 C 228.593 384.513 228.041 385.721 227.743 387.419 C 227.446 389.118 227.296 391.458 227.296 394.439 L 227.296 397.211 z M 288.817 428.776 C 284.585 428.776 281.187 427.45 278.623 424.797 C 276.059 422.144 274.599 418.642 274.242 414.29 L 282.2 411.876 C 282.677 415.154 283.481 417.613 284.614 419.253 C 285.747 420.892 287.416 421.712 289.622 421.712 C 291.35 421.712 292.662 421.22 293.556 420.236 C 294.45 419.253 294.897 417.926 294.897 416.257 C 294.897 414.767 294.569 413.426 293.914 412.233 C 293.258 411.041 292.185 409.819 290.695 408.567 L 281.842 400.967 C 280.054 399.417 278.549 397.688 277.327 395.78 C 276.104 393.873 275.493 391.399 275.493 388.358 C 275.493 385.616 276.045 383.306 277.148 381.428 C 278.25 379.551 279.801 378.12 281.798 377.136 C 283.794 376.153 286.134 375.661 288.817 375.661 C 293.109 375.661 296.388 376.987 298.653 379.64 C 300.918 382.293 302.23 385.497 302.588 389.253 L 295.792 391.667 C 295.553 389.879 295.195 388.314 294.719 386.972 C 294.242 385.631 293.556 384.588 292.662 383.843 C 291.768 383.098 290.605 382.725 289.175 382.725 C 287.625 382.725 286.387 383.247 285.464 384.29 C 284.54 385.333 284.078 386.57 284.078 388.001 C 284.078 388.895 284.272 389.774 284.659 390.639 C 285.046 391.503 285.717 392.352 286.671 393.187 L 295.792 401.592 C 297.044 402.725 298.221 403.947 299.324 405.259 C 300.426 406.57 301.336 408.06 302.051 409.73 C 302.766 411.399 303.124 413.336 303.124 415.542 C 303.124 418.463 302.528 420.907 301.336 422.874 C 300.144 424.842 298.474 426.317 296.328 427.301 C 294.182 428.284 291.678 428.776 288.817 428.776 z M 318.057 428.776 C 316.03 428.776 314.242 428.195 312.692 427.032 C 311.142 425.87 309.92 424.379 309.026 422.561 C 308.132 420.743 307.684 418.821 307.684 416.794 C 307.684 413.575 308.221 410.862 309.294 408.657 C 310.367 406.451 311.842 404.588 313.72 403.068 C 315.598 401.548 317.774 400.221 320.248 399.089 C 322.722 397.956 325.33 396.853 328.072 395.78 L 328.072 392.114 C 328.072 390.028 327.953 388.299 327.714 386.928 C 327.476 385.557 326.984 384.528 326.239 383.843 C 325.494 383.157 324.376 382.814 322.886 382.814 C 321.574 382.814 320.516 383.112 319.711 383.709 C 318.907 384.305 318.325 385.154 317.968 386.257 C 317.61 387.36 317.431 388.656 317.431 390.147 L 317.431 392.74 L 307.953 392.382 C 308.072 386.659 309.383 382.442 311.887 379.729 C 314.391 377.017 318.265 375.661 323.512 375.661 C 328.638 375.661 332.275 377.062 334.421 379.864 C 336.567 382.665 337.64 386.719 337.64 392.025 L 337.64 415.631 C 337.64 417.241 337.685 418.791 337.774 420.281 C 337.864 421.771 337.982 423.157 338.132 424.439 C 338.281 425.721 338.415 426.928 338.534 428.061 L 329.771 428.061 C 329.592 427.107 329.369 425.9 329.1 424.439 C 328.832 422.979 328.638 421.652 328.519 420.46 C 327.923 422.487 326.776 424.379 325.077 426.138 C 323.378 427.897 321.037 428.776 318.057 428.776 z M 321.813 420.549 C 322.767 420.549 323.661 420.281 324.495 419.745 C 325.33 419.208 326.075 418.597 326.731 417.912 C 327.386 417.226 327.833 416.675 328.072 416.257 L 328.072 401.592 C 326.581 402.427 325.181 403.262 323.869 404.096 C 322.558 404.931 321.41 405.81 320.427 406.734 C 319.443 407.658 318.668 408.701 318.102 409.864 C 317.536 411.026 317.252 412.353 317.252 413.843 C 317.252 415.929 317.64 417.569 318.415 418.761 C 319.19 419.953 320.322 420.549 321.813 420.549 z M 349.89 428.061 L 349.89 383.44 L 343.721 383.44 L 343.721 376.376 L 349.89 376.376 L 349.89 373.694 C 349.89 370.474 350.144 367.717 350.651 365.422 C 351.158 363.127 352.215 361.354 353.825 360.102 C 355.434 358.85 357.849 358.224 361.068 358.224 C 362.26 358.224 363.319 358.269 364.242 358.358 C 365.166 358.448 366.194 358.611 367.327 358.85 L 367.327 365.825 C 366.791 365.705 366.194 365.601 365.539 365.512 C 364.883 365.422 364.287 365.378 363.75 365.378 C 361.902 365.378 360.725 365.989 360.218 367.211 C 359.711 368.433 359.458 370.057 359.458 372.084 L 359.458 376.376 L 367.327 376.376 L 367.327 383.44 L 359.458 383.44 L 359.458 428.061 L 349.89 428.061 z M 379.309 428.776 C 377.282 428.776 375.494 428.195 373.944 427.032 C 372.395 425.87 371.172 424.379 370.278 422.561 C 369.384 420.743 368.937 418.821 368.937 416.794 C 368.937 413.575 369.473 410.862 370.546 408.657 C 371.619 406.451 373.095 404.588 374.973 403.068 C 376.85 401.548 379.026 400.221 381.5 399.089 C 383.974 397.956 386.582 396.853 389.324 395.78 L 389.324 392.114 C 389.324 390.028 389.206 388.299 388.967 386.928 C 388.728 385.557 388.236 384.528 387.491 383.843 C 386.746 383.157 385.629 382.814 384.138 382.814 C 382.826 382.814 381.768 383.112 380.964 383.709 C 380.159 384.305 379.578 385.154 379.22 386.257 C 378.862 387.36 378.684 388.656 378.684 390.147 L 378.684 392.74 L 369.205 392.382 C 369.324 386.659 370.636 382.442 373.14 379.729 C 375.643 377.017 379.518 375.661 384.764 375.661 C 389.89 375.661 393.527 377.062 395.673 379.864 C 397.819 382.665 398.892 386.719 398.892 392.025 L 398.892 415.631 C 398.892 417.241 398.937 418.791 399.026 420.281 C 399.116 421.771 399.235 423.157 399.384 424.439 C 399.533 425.721 399.668 426.928 399.787 428.061 L 391.023 428.061 C 390.845 427.107 390.621 425.9 390.353 424.439 C 390.085 422.979 389.89 421.652 389.772 420.46 C 389.175 422.487 388.028 424.379 386.329 426.138 C 384.63 427.897 382.29 428.776 379.309 428.776 z M 383.065 420.549 C 384.019 420.549 384.913 420.281 385.748 419.745 C 386.582 419.208 387.328 418.597 387.983 417.912 C 388.639 417.226 389.086 416.675 389.324 416.257 L 389.324 401.592 C 387.834 402.427 386.434 403.262 385.122 404.096 C 383.81 404.931 382.663 405.81 381.679 406.734 C 380.695 407.658 379.92 408.701 379.354 409.864 C 378.788 411.026 378.505 412.353 378.505 413.843 C 378.505 415.929 378.892 417.569 379.667 418.761 C 380.442 419.953 381.574 420.549 383.065 420.549 z M 408.371 428.061 L 408.371 376.376 L 417.939 376.376 L 417.939 383.709 C 419.846 380.549 421.754 378.433 423.662 377.36 C 425.569 376.287 427.477 375.75 429.384 375.75 C 429.623 375.75 429.847 375.75 430.055 375.75 C 430.263 375.75 430.547 375.78 430.904 375.84 L 430.904 386.391 C 430.189 386.093 429.369 385.84 428.445 385.631 C 427.522 385.422 426.583 385.318 425.629 385.318 C 424.138 385.318 422.783 385.661 421.56 386.346 C 420.338 387.032 419.131 388.358 417.939 390.326 L 417.939 428.061 L 408.371 428.061 z M 437.432 428.061 L 437.432 376.376 L 447 376.376 L 447 428.061 L 437.432 428.061 z M 437.432 368.686 L 437.432 358.671 L 447 358.671 L 447 368.686 L 437.432 368.686 z"/>
</svg>
